<?xml version="1.0" encoding="UTF-8" ?>
<svg version="1.1" width="128" height="128" xmlns="http://www.w3.org/2000/svg" shape-rendering="crispEdges">
<rect x="8" y="8" width="64" height="8" fill="#AC3232" />
<rect x="72" y="8" width="24" height="8" fill="#982C2C" />
<rect x="0" y="16" width="16" height="8" fill="#AC3232" />
<rect x="16" y="16" width="72" height="8" fill="#382622" />
<rect x="88" y="16" width="16" height="8" fill="#982C2C" />
<rect x="0" y="24" width="8" height="80" fill="#AC3232" />
<rect x="8" y="24" width="32" height="8" fill="#382622" />
<rect x="40" y="24" width="8" height="8" fill="#634A45" />
<rect x="48" y="24" width="8" height="16" fill="#382622" />
<rect x="56" y="24" width="24" height="8" fill="#634A45" />
<rect x="80" y="24" width="16" height="8" fill="#382622" />
<rect x="96" y="24" width="8" height="80" fill="#982C2C" />
<rect x="104" y="24" width="16" height="16" fill="#AC3232" />
<rect x="8" y="32" width="8" height="80" fill="#AC3232" />
<rect x="16" y="32" width="32" height="8" fill="#382622" />
<rect x="56" y="32" width="32" height="8" fill="#382622" />
<rect x="88" y="32" width="8" height="80" fill="#982C2C" />
<rect x="120" y="32" width="8" height="40" fill="#AC3232" />
<rect x="16" y="40" width="72" height="8" fill="#AC3232" />
<rect x="112" y="40" width="8" height="24" fill="#982C2C" />
<rect x="16" y="48" width="16" height="8" fill="#AC3232" />
<rect x="32" y="48" width="40" height="16" fill="#2CCBA9" />
<rect x="72" y="48" width="16" height="8" fill="#AC3232" />
<rect x="16" y="56" width="8" height="64" fill="#AC3232" />
<rect x="24" y="56" width="8" height="32" fill="#2CCBA9" />
<rect x="72" y="56" width="8" height="32" fill="#2CCBA9" />
<rect x="80" y="56" width="8" height="48" fill="#AC3232" />
<rect x="32" y="64" width="16" height="16" fill="#222034" />
<rect x="48" y="64" width="8" height="40" fill="#2CCBA9" />
<rect x="56" y="64" width="16" height="16" fill="#222034" />
<rect x="104" y="64" width="8" height="8" fill="#982C2C" />
<rect x="112" y="64" width="8" height="16" fill="#AC3232" />
<rect x="104" y="72" width="8" height="8" fill="#AC3232" />
<rect x="32" y="80" width="8" height="16" fill="#2CCBA9" />
<rect x="40" y="80" width="8" height="8" fill="#222034" />
<rect x="56" y="80" width="8" height="8" fill="#222034" />
<rect x="64" y="80" width="8" height="16" fill="#2CCBA9" />
<rect x="24" y="88" width="8" height="32" fill="#AC3232" />
<rect x="40" y="88" width="8" height="16" fill="#2CCBA9" />
<rect x="56" y="88" width="8" height="16" fill="#2CCBA9" />
<rect x="72" y="88" width="8" height="24" fill="#AC3232" />
<rect x="32" y="96" width="8" height="24" fill="#AC3232" />
<rect x="64" y="96" width="8" height="16" fill="#AC3232" />
<rect x="40" y="104" width="24" height="16" fill="#AC3232" />
<rect x="80" y="104" width="8" height="16" fill="#982C2C" />
<rect x="64" y="112" width="16" height="8" fill="#982C2C" />
</svg>